<mxfile host="65bd71144e">
    <diagram id="PENDqtXFvMZxKdlxWfBZ" name="ページ1">
        <mxGraphModel dx="1386" dy="802" grid="1" gridSize="10" guides="1" tooltips="1" connect="1" arrows="1" fold="1" page="1" pageScale="1" pageWidth="827" pageHeight="1169" math="0" shadow="0">
            <root>
                <mxCell id="0"/>
                <mxCell id="1" parent="0"/>
                <mxCell id="2" value="リバーシ&lt;br&gt;&lt;div style=&quot;text-align: left;&quot;&gt;&lt;span style=&quot;&quot;&gt;アプリケーション&lt;/span&gt;&lt;/div&gt;" style="whiteSpace=wrap;html=1;aspect=fixed;verticalAlign=top;labelBackgroundColor=none;fillColor=none;" vertex="1" parent="1">
                    <mxGeometry x="320" y="150" width="400" height="400" as="geometry"/>
                </mxCell>
                <mxCell id="3" value="プレイヤー" style="shape=umlActor;verticalLabelPosition=bottom;verticalAlign=top;html=1;outlineConnect=0;labelBackgroundColor=none;fillColor=none;" vertex="1" parent="1">
                    <mxGeometry x="180" y="240" width="40" height="80" as="geometry"/>
                </mxCell>
                <mxCell id="6" value="対戦する" style="ellipse;whiteSpace=wrap;html=1;labelBackgroundColor=none;fillColor=default;" vertex="1" parent="1">
                    <mxGeometry x="360" y="340" width="140" height="70" as="geometry"/>
                </mxCell>
                <mxCell id="7" value="" style="endArrow=none;html=1;entryX=0;entryY=0;entryDx=0;entryDy=0;" edge="1" parent="1" source="3" target="6">
                    <mxGeometry relative="1" as="geometry">
                        <mxPoint x="330" y="400" as="sourcePoint"/>
                        <mxPoint x="490" y="400" as="targetPoint"/>
                    </mxGeometry>
                </mxCell>
                <mxCell id="10" value="&lt;ul&gt;&lt;li&gt;対戦を開始する&lt;/li&gt;&lt;li&gt;盤面を見る&lt;/li&gt;&lt;li&gt;石を打つ&lt;/li&gt;&lt;li&gt;詳細を確認する&lt;/li&gt;&lt;/ul&gt;" style="shape=note;whiteSpace=wrap;html=1;backgroundOutline=1;darkOpacity=0.05;labelBackgroundColor=none;fillColor=#ffe6cc;align=left;strokeColor=#d79b00;horizontal=1;size=14;" vertex="1" parent="1">
                    <mxGeometry x="574" y="185" width="146" height="100" as="geometry"/>
                </mxCell>
                <mxCell id="11" value="過去の対戦結果を確認" style="ellipse;whiteSpace=wrap;html=1;labelBackgroundColor=none;fillColor=default;" vertex="1" parent="1">
                    <mxGeometry x="357" y="430" width="140" height="70" as="geometry"/>
                </mxCell>
                <mxCell id="12" value="会員登録&lt;br&gt;ログインする" style="ellipse;whiteSpace=wrap;html=1;labelBackgroundColor=none;fillColor=default;" vertex="1" parent="1">
                    <mxGeometry x="357" y="200" width="140" height="70" as="geometry"/>
                </mxCell>
                <mxCell id="13" value="一人で白黒交互に打つ" style="ellipse;whiteSpace=wrap;html=1;labelBackgroundColor=none;fillColor=default;" vertex="1" parent="1">
                    <mxGeometry x="610" y="330" width="140" height="70" as="geometry"/>
                </mxCell>
                <mxCell id="14" value="コンピュータと&lt;br&gt;対戦する" style="ellipse;whiteSpace=wrap;html=1;labelBackgroundColor=none;fillColor=default;" vertex="1" parent="1">
                    <mxGeometry x="610" y="530" width="140" height="70" as="geometry"/>
                </mxCell>
                <mxCell id="15" value="他のプレイヤーと&lt;br&gt;対戦する" style="ellipse;whiteSpace=wrap;html=1;labelBackgroundColor=none;fillColor=default;" vertex="1" parent="1">
                    <mxGeometry x="600" y="610" width="140" height="70" as="geometry"/>
                </mxCell>
                <mxCell id="16" value="" style="endArrow=none;html=1;entryX=0;entryY=0;entryDx=0;entryDy=0;" edge="1" parent="1" target="11">
                    <mxGeometry relative="1" as="geometry">
                        <mxPoint x="220" y="290" as="sourcePoint"/>
                        <mxPoint x="390.5025253169417" y="360.25126265847075" as="targetPoint"/>
                    </mxGeometry>
                </mxCell>
                <mxCell id="17" value="" style="endArrow=none;html=1;entryX=0;entryY=0.5;entryDx=0;entryDy=0;" edge="1" parent="1" target="12">
                    <mxGeometry relative="1" as="geometry">
                        <mxPoint x="220" y="270" as="sourcePoint"/>
                        <mxPoint x="390.5025253169417" y="360.25126265847075" as="targetPoint"/>
                    </mxGeometry>
                </mxCell>
                <mxCell id="18" value="プレイヤーの&lt;br&gt;ランキングを&lt;br&gt;確認する" style="ellipse;whiteSpace=wrap;html=1;labelBackgroundColor=none;fillColor=default;" vertex="1" parent="1">
                    <mxGeometry x="360" y="585" width="140" height="70" as="geometry"/>
                </mxCell>
                <mxCell id="19" value="" style="endArrow=none;html=1;entryX=0;entryY=0;entryDx=0;entryDy=0;" edge="1" parent="1" source="3" target="18">
                    <mxGeometry relative="1" as="geometry">
                        <mxPoint x="230" y="310" as="sourcePoint"/>
                        <mxPoint x="387.5025253169417" y="450.25126265847075" as="targetPoint"/>
                    </mxGeometry>
                </mxCell>
                <mxCell id="21" value="Extends" style="endArrow=block;endSize=16;endFill=0;html=1;fontColor=default;entryX=1;entryY=0.5;entryDx=0;entryDy=0;exitX=0;exitY=0.5;exitDx=0;exitDy=0;" edge="1" parent="1" source="13" target="6">
                    <mxGeometry width="160" relative="1" as="geometry">
                        <mxPoint x="330" y="300" as="sourcePoint"/>
                        <mxPoint x="490" y="300" as="targetPoint"/>
                    </mxGeometry>
                </mxCell>
                <mxCell id="22" value="Extends" style="endArrow=block;endSize=16;endFill=0;html=1;fontColor=default;entryX=1;entryY=0.614;entryDx=0;entryDy=0;entryPerimeter=0;" edge="1" parent="1" source="14" target="6">
                    <mxGeometry width="160" relative="1" as="geometry">
                        <mxPoint x="620" y="375" as="sourcePoint"/>
                        <mxPoint x="510" y="385" as="targetPoint"/>
                    </mxGeometry>
                </mxCell>
                <mxCell id="23" value="Extends" style="endArrow=block;endSize=16;endFill=0;html=1;fontColor=default;entryX=1;entryY=1;entryDx=0;entryDy=0;exitX=0;exitY=0;exitDx=0;exitDy=0;" edge="1" parent="1" source="15" target="6">
                    <mxGeometry width="160" relative="1" as="geometry">
                        <mxPoint x="603.4939903865406" y="432.4328394827585" as="sourcePoint"/>
                        <mxPoint x="510" y="392.98" as="targetPoint"/>
                    </mxGeometry>
                </mxCell>
                <mxCell id="24" value="" style="endArrow=none;dashed=1;html=1;dashPattern=1 3;strokeWidth=2;fontColor=default;entryX=0;entryY=1;entryDx=0;entryDy=0;entryPerimeter=0;exitX=1;exitY=0;exitDx=0;exitDy=0;" edge="1" parent="1" source="6" target="10">
                    <mxGeometry width="50" height="50" relative="1" as="geometry">
                        <mxPoint x="390" y="320" as="sourcePoint"/>
                        <mxPoint x="440" y="270" as="targetPoint"/>
                    </mxGeometry>
                </mxCell>
                <mxCell id="25" value="&lt;b&gt;今回の実装範囲&lt;/b&gt;" style="rounded=0;whiteSpace=wrap;html=1;labelBackgroundColor=none;fontColor=default;fillColor=none;strokeWidth=3;strokeColor=#FF9999;align=left;verticalAlign=top;" vertex="1" parent="1">
                    <mxGeometry x="350" y="290" width="410" height="220" as="geometry"/>
                </mxCell>
            </root>
        </mxGraphModel>
    </diagram>
</mxfile>